<svg id="instagram" xmlns="http://www.w3.org/2000/svg" width="27.994" height="27.994" viewBox="0 0 27.994 27.994">
  <g id="Group_125" data-name="Group 125">
    <g id="Group_124" data-name="Group 124">
      <path id="Path_314" data-name="Path 314" d="M20.43,0H7.564A7.572,7.572,0,0,0,0,7.564V20.43a7.572,7.572,0,0,0,7.564,7.564H20.43a7.572,7.572,0,0,0,7.564-7.564V7.564A7.572,7.572,0,0,0,20.43,0Zm5.3,20.43a5.308,5.308,0,0,1-5.3,5.3H7.564a5.308,5.308,0,0,1-5.3-5.3V7.564a5.308,5.308,0,0,1,5.3-5.3H20.43a5.308,5.308,0,0,1,5.3,5.3Z" fill="#fff"/>
    </g>
  </g>
  <g id="Group_127" data-name="Group 127" transform="translate(7.774 7.664)">
    <g id="Group_126" data-name="Group 126">
      <path id="Path_315" data-name="Path 315" d="M154.672,145.528a6.276,6.276,0,1,0-6.223,7.2,6.36,6.36,0,0,0,.934-.069,6.277,6.277,0,0,0,5.289-7.13Zm-5.62,4.893a4.016,4.016,0,1,1,3.383-4.561A3.988,3.988,0,0,1,149.052,150.421Z" transform="translate(-142.185 -140.171)" fill="#fff"/>
    </g>
  </g>
  <g id="Group_129" data-name="Group 129" transform="translate(19.942 5.79)">
    <g id="Group_128" data-name="Group 128">
      <path id="Path_316" data-name="Path 316" d="M366.672,106.224a1.131,1.131,0,1,0,.331.8A1.139,1.139,0,0,0,366.672,106.224Z" transform="translate(-364.741 -105.893)" fill="#fff"/>
    </g>
  </g>
</svg>
