<svg id="whatsapp" xmlns="http://www.w3.org/2000/svg" width="27.519" height="27.545" viewBox="0 0 27.519 27.545">
  <path id="Path_37758" data-name="Path 37758" d="M23.453,4a13.767,13.767,0,0,0-19.4,0A13.513,13.513,0,0,0,0,13.645v.007A13.583,13.583,0,0,0,1.676,20.1L.038,27.545,7.57,25.832A13.788,13.788,0,0,0,13.754,27.3h.005a13.722,13.722,0,0,0,9.708-4A13.5,13.5,0,0,0,23.453,4ZM13.759,25.151h0a11.62,11.62,0,0,1-5.524-1.4l-.356-.193L2.866,24.7l1.088-4.945-.21-.362A11.492,11.492,0,0,1,2.15,13.65,11.605,11.605,0,0,1,21.935,5.523a11.428,11.428,0,0,1,3.434,8.132,11.57,11.57,0,0,1-11.61,11.5Zm0,0" transform="translate(0)" fill="#55e32b"/>
  <path id="Path_37759" data-name="Path 37759" d="M141.411,141.863h-.6a1.158,1.158,0,0,0-.839.392,3.512,3.512,0,0,0-1.1,2.616,6.092,6.092,0,0,0,1.285,3.244,12.9,12.9,0,0,0,5.376,4.735c2.659,1.045,3.2.837,3.777.785a3.178,3.178,0,0,0,2.124-1.491,2.615,2.615,0,0,0,.184-1.491c-.079-.131-.289-.209-.6-.366s-1.857-.929-2.146-1.034-.5-.157-.708.157-.828,1.039-1.012,1.248-.367.236-.682.079a8.7,8.7,0,0,1-2.52-1.563,9.642,9.642,0,0,1-1.769-2.206c-.184-.314-.02-.484.138-.64.141-.14.332-.332.49-.516a2.121,2.121,0,0,0,.307-.523.576.576,0,0,0-.026-.549c-.079-.157-.683-1.708-.963-2.328h0C141.883,141.89,141.635,141.872,141.411,141.863Zm0,0" transform="translate(-131.396 -134.231)" fill="#55e32b"/>
</svg>
