<svg xmlns="http://www.w3.org/2000/svg" width="245" height="66.723" viewBox="0 0 245 66.723">
  <g id="srobo" transform="translate(-102.93 -90.99)">
    <path id="Path_37714" data-name="Path 37714" d="M136.292,90.99a33.362,33.362,0,1,0,33.362,33.362A33.4,33.4,0,0,0,136.292,90.99Zm12.447,60.432,9.052-9.221s-11.387,9.956-25.6,5.731a31.492,31.492,0,0,0-4.818-1.144v-.014a12,12,0,0,0-2.006-6.871,2.98,2.98,0,0,0-1.625-1.37,9.452,9.452,0,0,1-1.262-.622c.532-.956,1.1-1.851,1.545-2.8a8.238,8.238,0,0,0,.009-6.932,15.52,15.52,0,0,0-2.3-2.991,9.1,9.1,0,0,0,4.229-3.494,7.981,7.981,0,0,0,1.069-5.067c1.385-.848,3.118-1.262,4.319-2.261a15.118,15.118,0,0,0,2.411-2.986c.325-.447,1.257-.678,1.611-.231,1.969,2.482,4.658,3.975,7.408,5.364a25.114,25.114,0,0,0,6.885,2.557h0a1.951,1.951,0,0,1,1.507,2.03c-.141.118-1.154.838-1.488,1.116l-.019.009c-.834.669-6.5,1.648-7.309,6.428-.593,3.494,4.436,7.954,4.436,7.954-.085-.386-.16-.754-.217-1.093-.033-.179-.042-.353-.085-.513-1.342-5.435,6.494-6.537,7.587-7,.226-.08.871-.273,1.107-.381h0a6.1,6.1,0,0,0,1.319-.843s.014-.009.019-.014a5.419,5.419,0,0,0,.476-.457.2.2,0,0,0,.028-.033c.071-.08.146-.165.212-.25.009-.009.019-.024.028-.033.066-.085.132-.17.193-.259,0-.009.009-.014.014-.024.061-.089.122-.188.184-.287.014-.019.024-.042.038-.061.057-.1.113-.2.165-.306.009-.014.014-.033.024-.047.047-.094.089-.193.132-.3l.028-.071q.064-.162.127-.339c.009-.028.019-.061.028-.089.038-.118.075-.235.1-.358,0-.014.009-.033.014-.047.028-.118.057-.245.085-.372a.871.871,0,0,0,.019-.108c.024-.132.047-.268.066-.405,0-.033.009-.071.014-.108.014-.127.028-.254.038-.386,0-.028,0-.057,0-.085.009-.151.014-.306.019-.462v-.132c0-.16,0-.325-.009-.494,0-.028,0-.061,0-.094-.009-.155-.019-.311-.033-.476,0-.038,0-.08-.009-.118-.019-.179-.042-.367-.066-.556,0-.042-.014-.089-.019-.132-.028-.2-.061-.405-.1-.612,0,0-3.019-3.909-3.023-3.914a3.424,3.424,0,0,0-.725-1.05c-.188-.165-.523-.819-1.229-.65-.165-.994,0-1.29-.344-1.573-1.418-1.163-2.148-2.68-3.565-3.843a29.453,29.453,0,0,0-3.843-2.628,18.055,18.055,0,0,0-2.783-1.159,9.617,9.617,0,0,0-1.154-.344c-.942-.165-3.085-.871-4.173-.608a5.21,5.21,0,0,1-2.548-.48c-1.436-.692-2.082-.2-3.551.075-7.384,1.389-9.5,7.6-10.441,8.477-.57.532-1.422.834-1.931,1.441-1.14,1.356-4.931,6.819-3.777,12.179-1.724,3.777-2.086,4.3-2.119,5.651a20.646,20.646,0,0,0,1.531,7.3,3.026,3.026,0,0,0,.433.749c.358.532,1.408,1.973,1.107,2.694a3.792,3.792,0,0,0-.071,2.129,28.531,28.531,0,0,0,.885,3.339,29.8,29.8,0,1,1,31.742,4.366Z" transform="translate(0 0)" fill="#eef2f5"/>
    <g id="Group_35676" data-name="Group 35676" transform="translate(187.036 94.593)">
      <g id="Group_35674" data-name="Group 35674" transform="translate(0 28.869)">
        <path id="Path_37715" data-name="Path 37715" d="M293.557,190.633q-7.636,0-12.037-4.7l2.887-4a12.341,12.341,0,0,0,9.372,4.088,7.014,7.014,0,0,0,4.465-1.2,3.559,3.559,0,0,0,1.488-2.845,3.007,3.007,0,0,0-1.775-2.684,16.187,16.187,0,0,0-4.309-1.578q-2.529-.579-5.086-1.375a9.779,9.779,0,0,1-4.328-2.708,6.934,6.934,0,0,1-1.775-4.931,7.686,7.686,0,0,1,3-6.193,11.869,11.869,0,0,1,7.794-2.463,15.27,15.27,0,0,1,11.1,4.13l-2.976,3.862a11.608,11.608,0,0,0-8.571-3.377,6.06,6.06,0,0,0-3.664,1,3.172,3.172,0,0,0-1.356,2.684,2.3,2.3,0,0,0,.956,1.865,7.524,7.524,0,0,0,2.463,1.22c1.008.311,2.124.617,3.353.909s2.458.659,3.688,1.088A17.062,17.062,0,0,1,301.592,175a7.194,7.194,0,0,1,2.463,2.576,7.656,7.656,0,0,1,.956,3.909,8.416,8.416,0,0,1-2.887,6.574Q299.242,190.635,293.557,190.633Z" transform="translate(-281.52 -159.993)" fill="#eef2f5"/>
        <path id="Path_37716" data-name="Path 37716" d="M363.731,190.58a15.336,15.336,0,0,1-11.1-4.286,15.928,15.928,0,0,1,0-22.068,15.337,15.337,0,0,1,11.1-4.286,13.262,13.262,0,0,1,11.9,6.659l-4.441,2.265a8.655,8.655,0,0,0-3.132-3.108,8.336,8.336,0,0,0-4.328-1.2,9.722,9.722,0,0,0-7.3,3.019,11.591,11.591,0,0,0,0,15.362,9.712,9.712,0,0,0,7.3,3.019,8.3,8.3,0,0,0,4.352-1.2,8.7,8.7,0,0,0,3.108-3.108l4.441,2.265A13.377,13.377,0,0,1,363.731,190.58Z" transform="translate(-316.792 -159.94)" fill="#eef2f5"/>
        <path id="Path_37717" data-name="Path 37717" d="M447.96,186.252a15.837,15.837,0,0,1-21.758,0,16.305,16.305,0,0,1,0-21.984,15.837,15.837,0,0,1,21.758,0,16.305,16.305,0,0,1,0,21.984Zm-10.879-.287a9.063,9.063,0,0,0,7.107-3.042,12.221,12.221,0,0,0,0-15.343,9.9,9.9,0,0,0-14.232,0,12.332,12.332,0,0,0,0,15.362A9.053,9.053,0,0,0,437.081,185.964Z" transform="translate(-355.81 -159.94)" fill="#eef2f5"/>
        <path id="Path_37718" data-name="Path 37718" d="M522,178.965a8.416,8.416,0,0,0,4.973-2.731,8.525,8.525,0,0,0,2.044-5.972,8.914,8.914,0,0,0-2.666-6.706,9.662,9.662,0,0,0-7.017-2.576H506.32v4.573h12.3a5.218,5.218,0,0,1,3.64,1.286,4.821,4.821,0,0,1,0,6.838,5.219,5.219,0,0,1-3.64,1.286h-12.3v15.631h5.195V179.535h5.152l6.574,11.058h6Z" transform="translate(-400.452 -160.49)" fill="#eef2f5"/>
        <path id="Path_37719" data-name="Path 37719" d="M595.065,163.636a9.441,9.441,0,0,0-7.083-2.666H574.97v4.573h12.3a5.218,5.218,0,0,1,3.64,1.286,4.821,4.821,0,0,1,0,6.838,5.218,5.218,0,0,1-3.64,1.286h-12.3v15.631h5.195V179.525h7.818a9.4,9.4,0,0,0,7.083-2.684,9.685,9.685,0,0,0,0-13.205Z" transform="translate(-436.771 -160.485)" fill="#eef2f5"/>
      </g>
      <g id="Group_35675" data-name="Group 35675" transform="translate(0.005)">
        <path id="Path_37720" data-name="Path 37720" d="M337.018,119.253a10.149,10.149,0,0,1-7.455-2.915,10.758,10.758,0,0,1,0-14.788,11.059,11.059,0,0,1,14.938-.014,10.794,10.794,0,0,1,0,14.816A10.218,10.218,0,0,1,337.018,119.253Zm-4.38-5.618a6.119,6.119,0,0,0,8.769,0,7.416,7.416,0,0,0,0-9.381,5.644,5.644,0,0,0-4.394-1.851,5.583,5.583,0,0,0-4.375,1.851,7.465,7.465,0,0,0,0,9.381Z" transform="translate(-305.385 -98.64)" fill="#eef2f5"/>
        <path id="Path_37721" data-name="Path 37721" d="M440.278,119.253a10.149,10.149,0,0,1-7.455-2.915,10.758,10.758,0,0,1,0-14.788,11.059,11.059,0,0,1,14.938-.014,10.794,10.794,0,0,1,0,14.816A10.2,10.2,0,0,1,440.278,119.253Zm-4.375-5.618a6.119,6.119,0,0,0,8.769,0,7.416,7.416,0,0,0,0-9.381,5.644,5.644,0,0,0-4.394-1.851,5.583,5.583,0,0,0-4.375,1.851,7.465,7.465,0,0,0,0,9.381Z" transform="translate(-360.015 -98.64)" fill="#eef2f5"/>
        <path id="Path_37722" data-name="Path 37722" d="M293.177,111.679a5.59,5.59,0,0,0,3.094-1.94,6,6,0,0,0,1.272-3.975,6.234,6.234,0,0,0-1.808-4.629,6.631,6.631,0,0,0-4.884-1.794h-9.32v3.735h8.694a3.169,3.169,0,0,1,2.152.73,2.7,2.7,0,0,1,0,3.909,3.146,3.146,0,0,1-2.152.73H281.53v10.813h4.243v-7.078h3.108l3.914,7.078h4.87Z" transform="translate(-281.53 -99.01)" fill="#eef2f5"/>
        <path id="Path_37723" data-name="Path 37723" d="M399.023,110.639a4.155,4.155,0,0,0-2.717-1.644,4.127,4.127,0,0,0,2.449-1.521,4.714,4.714,0,0,0,.984-3.047,4.855,4.855,0,0,0-1.507-3.6A5.8,5.8,0,0,0,394,99.35H383.52V103h9.56a2.334,2.334,0,0,1,1.686.612,2.073,2.073,0,0,1,.64,1.568,2.051,2.051,0,0,1-.626,1.554,2.356,2.356,0,0,1-1.7.6h-9.56v11.948h10.813a5.789,5.789,0,0,0,4.271-1.521,5.213,5.213,0,0,0,1.521-3.852A5.076,5.076,0,0,0,399.023,110.639Zm-3.914,4.347a2.724,2.724,0,0,1-1.884.612h-5.468v-4.629h5.468a2.59,2.59,0,0,1,1.884.673,2.235,2.235,0,0,1,.688,1.658A2.156,2.156,0,0,1,395.11,114.985Z" transform="translate(-335.488 -99.016)" fill="#eef2f5"/>
      </g>
    </g>
  </g>
</svg>
