<svg id="srobo" xmlns="http://www.w3.org/2000/svg" width="284" height="77.345" viewBox="0 0 284 77.345">
  <path id="Path_37714" data-name="Path 37714" d="M141.6,90.99a38.672,38.672,0,1,0,38.672,38.672A38.717,38.717,0,0,0,141.6,90.99Zm14.428,70.052,10.492-10.689s-13.2,11.541-29.676,6.644a36.506,36.506,0,0,0-5.585-1.327v-.016a13.912,13.912,0,0,0-2.326-7.965,3.455,3.455,0,0,0-1.883-1.589,10.959,10.959,0,0,1-1.463-.721c.617-1.108,1.272-2.145,1.791-3.248a9.549,9.549,0,0,0,.011-8.036c-.519-1.217-1.649-2.178-2.67-3.467a10.55,10.55,0,0,0,4.9-4.051,9.252,9.252,0,0,0,1.239-5.874c1.6-.983,3.614-1.463,5.006-2.62a17.524,17.524,0,0,0,2.8-3.461c.377-.519,1.458-.786,1.867-.268,2.282,2.877,5.4,4.608,8.587,6.218a29.112,29.112,0,0,0,7.981,2.964h0a2.262,2.262,0,0,1,1.747,2.353c-.164.136-1.337.972-1.725,1.294l-.022.011c-.966.775-7.534,1.911-8.473,7.452-.688,4.051,5.142,9.22,5.142,9.22-.1-.448-.186-.873-.251-1.267-.038-.207-.049-.409-.1-.6-1.556-6.3,7.528-7.577,8.795-8.112.262-.093,1.01-.317,1.283-.442h.005a7.074,7.074,0,0,0,1.529-.977c.005-.005.016-.011.022-.016a6.284,6.284,0,0,0,.551-.53.236.236,0,0,0,.033-.038c.082-.093.169-.191.246-.289.011-.011.022-.027.033-.038.076-.1.153-.2.224-.3.005-.011.011-.016.016-.027.071-.1.142-.218.213-.333.016-.022.027-.049.044-.071.066-.115.131-.229.191-.355.011-.016.016-.038.027-.055.055-.109.1-.224.153-.344l.033-.082q.074-.188.147-.393c.011-.033.022-.071.033-.1.044-.136.087-.273.12-.415.005-.016.011-.038.016-.055.033-.136.066-.284.1-.431a1.01,1.01,0,0,0,.022-.126c.027-.153.055-.311.076-.469.005-.038.011-.082.016-.126.016-.147.033-.295.044-.448,0-.033.005-.066.005-.1.011-.175.016-.355.022-.535v-.153c0-.186,0-.377-.011-.573,0-.033-.005-.071-.005-.109-.011-.18-.022-.36-.038-.551-.005-.044-.005-.093-.011-.136-.022-.207-.049-.426-.076-.644-.005-.049-.016-.1-.022-.153-.033-.229-.071-.469-.12-.71,0,0-3.5-4.531-3.5-4.537a3.969,3.969,0,0,0-.841-1.217c-.218-.191-.606-.95-1.425-.753-.191-1.152,0-1.5-.4-1.823-1.643-1.348-2.489-3.106-4.133-4.455a34.142,34.142,0,0,0-4.455-3.046,20.93,20.93,0,0,0-3.226-1.343,11.146,11.146,0,0,0-1.337-.4c-1.092-.191-3.576-1.01-4.837-.7a6.039,6.039,0,0,1-2.953-.557c-1.665-.8-2.413-.235-4.116.087-8.56,1.61-11.011,8.806-12.1,9.826-.661.617-1.649.966-2.238,1.67-1.321,1.572-5.716,7.9-4.378,14.117-2,4.378-2.418,4.984-2.457,6.551a23.932,23.932,0,0,0,1.774,8.467,3.508,3.508,0,0,0,.5.868c.415.617,1.632,2.287,1.283,3.123a4.4,4.4,0,0,0-.082,2.468,33.073,33.073,0,0,0,1.026,3.871,34.545,34.545,0,1,1,36.795,5.061Z" transform="translate(-102.93 -90.99)" fill="#1d71b8"/>
  <g id="Group_35676" data-name="Group 35676" transform="translate(97.495 4.176)">
    <g id="Group_35674" data-name="Group 35674" transform="translate(0 33.464)">
      <path id="Path_37715" data-name="Path 37715" d="M295.474,195.5q-8.852,0-13.954-5.454l3.346-4.635a14.306,14.306,0,0,0,10.864,4.739,8.131,8.131,0,0,0,5.175-1.392,4.125,4.125,0,0,0,1.725-3.3,3.485,3.485,0,0,0-2.058-3.112,18.764,18.764,0,0,0-5-1.829q-2.932-.671-5.9-1.594a11.336,11.336,0,0,1-5.017-3.139,8.038,8.038,0,0,1-2.058-5.716,8.909,8.909,0,0,1,3.472-7.179,13.758,13.758,0,0,1,9.035-2.855q7.927,0,12.867,4.788l-3.45,4.476a13.456,13.456,0,0,0-9.936-3.914,7.024,7.024,0,0,0-4.247,1.157,3.677,3.677,0,0,0-1.572,3.112,2.665,2.665,0,0,0,1.108,2.162,8.722,8.722,0,0,0,2.855,1.414c1.168.36,2.462.715,3.887,1.054s2.85.764,4.275,1.261a19.776,19.776,0,0,1,3.887,1.829,8.34,8.34,0,0,1,2.855,2.986,8.875,8.875,0,0,1,1.108,4.531,9.756,9.756,0,0,1-3.346,7.621Q302.063,195.505,295.474,195.5Z" transform="translate(-281.52 -159.985)"/>
      <path id="Path_37716" data-name="Path 37716" d="M366.205,195.457a17.778,17.778,0,0,1-12.867-4.968,18.464,18.464,0,0,1,0-25.581,17.778,17.778,0,0,1,12.867-4.968,15.373,15.373,0,0,1,13.8,7.719l-5.148,2.626a10.033,10.033,0,0,0-3.63-3.6,9.663,9.663,0,0,0-5.017-1.392,11.269,11.269,0,0,0-8.467,3.5,13.436,13.436,0,0,0,0,17.808,11.258,11.258,0,0,0,8.467,3.5,9.618,9.618,0,0,0,5.044-1.392,10.082,10.082,0,0,0,3.6-3.6L380,187.727Q375.063,195.465,366.205,195.457Z" transform="translate(-311.794 -159.94)"/>
      <path id="Path_37717" data-name="Path 37717" d="M452.1,190.44a18.357,18.357,0,0,1-25.221,0,18.9,18.9,0,0,1,0-25.483,18.357,18.357,0,0,1,25.221,0,18.9,18.9,0,0,1,0,25.483Zm-12.611-.333a10.505,10.505,0,0,0,8.238-3.527,14.167,14.167,0,0,0,0-17.786,11.472,11.472,0,0,0-16.5,0,14.295,14.295,0,0,0,0,17.808A10.494,10.494,0,0,0,439.491,190.107Z" transform="translate(-345.283 -159.94)"/>
      <path id="Path_37718" data-name="Path 37718" d="M524.493,181.828a9.755,9.755,0,0,0,5.765-3.166,9.882,9.882,0,0,0,2.369-6.922,10.333,10.333,0,0,0-3.09-7.774,11.2,11.2,0,0,0-8.134-2.986H506.32v5.3h14.259a6.049,6.049,0,0,1,4.22,1.49,5.588,5.588,0,0,1,0,7.927,6.049,6.049,0,0,1-4.22,1.49H506.32v18.119h6.021V182.489h5.972l7.621,12.818h6.949Z" transform="translate(-383.599 -160.412)"/>
      <path id="Path_37719" data-name="Path 37719" d="M598.264,164.06a10.944,10.944,0,0,0-8.211-3.09H574.97v5.3h14.254a6.049,6.049,0,0,1,4.22,1.49,5.588,5.588,0,0,1,0,7.927,6.049,6.049,0,0,1-4.22,1.49H574.97V195.3h6.021V182.479h9.062a10.9,10.9,0,0,0,8.211-3.112,11.226,11.226,0,0,0,0-15.307Z" transform="translate(-414.772 -160.408)"/>
    </g>
    <g id="Group_35675" data-name="Group 35675" transform="translate(0.005)">
      <path id="Path_37720" data-name="Path 37720" d="M338.674,122.535a11.764,11.764,0,0,1-8.642-3.379,12.471,12.471,0,0,1,0-17.142A12.82,12.82,0,0,1,347.348,102a12.512,12.512,0,0,1,0,17.174A11.845,11.845,0,0,1,338.674,122.535Zm-5.077-6.513a7.093,7.093,0,0,0,10.165,0,8.6,8.6,0,0,0,0-10.875A6.542,6.542,0,0,0,338.668,103a6.472,6.472,0,0,0-5.072,2.145,8.653,8.653,0,0,0,0,10.875Z" transform="translate(-302.005 -98.64)" fill="#1d71b8"/>
      <path id="Path_37721" data-name="Path 37721" d="M441.934,122.535a11.764,11.764,0,0,1-8.642-3.379,12.471,12.471,0,0,1,0-17.142A12.82,12.82,0,0,1,450.608,102a12.512,12.512,0,0,1,0,17.174A11.828,11.828,0,0,1,441.934,122.535Zm-5.072-6.513a7.093,7.093,0,0,0,10.165,0,8.6,8.6,0,0,0,0-10.875A6.542,6.542,0,0,0,441.934,103a6.472,6.472,0,0,0-5.072,2.145,8.653,8.653,0,0,0,0,10.875Z" transform="translate(-348.894 -98.64)" fill="#1d71b8"/>
      <path id="Path_37722" data-name="Path 37722" d="M295.03,113.643a6.48,6.48,0,0,0,3.587-2.249,6.955,6.955,0,0,0,1.474-4.608,7.226,7.226,0,0,0-2.1-5.366,7.687,7.687,0,0,0-5.661-2.08h-10.8v4.329h10.078a3.674,3.674,0,0,1,2.495.846,3.127,3.127,0,0,1,0,4.531,3.647,3.647,0,0,1-2.495.846H281.53v12.534h4.919v-8.205h3.6l4.536,8.205h5.645Z" transform="translate(-281.53 -98.958)" fill="#1d71b8"/>
      <path id="Path_37723" data-name="Path 37723" d="M401.491,112.436a4.817,4.817,0,0,0-3.15-1.905,4.784,4.784,0,0,0,2.839-1.763,5.464,5.464,0,0,0,1.141-3.532,5.627,5.627,0,0,0-1.747-4.171,6.718,6.718,0,0,0-4.9-1.714H383.52v4.225H394.6a2.706,2.706,0,0,1,1.954.71,2.4,2.4,0,0,1,.742,1.818,2.377,2.377,0,0,1-.726,1.8,2.73,2.73,0,0,1-1.971.693H383.52v13.85h12.534a6.71,6.71,0,0,0,4.951-1.763,6.043,6.043,0,0,0,1.763-4.466A5.884,5.884,0,0,0,401.491,112.436Zm-4.537,5.039a3.158,3.158,0,0,1-2.184.71h-6.338v-5.366h6.338a3,3,0,0,1,2.184.781,2.591,2.591,0,0,1,.8,1.922A2.5,2.5,0,0,1,396.955,117.474Z" transform="translate(-327.842 -98.962)" fill="#1d71b8"/>
    </g>
  </g>
</svg>
